# xmcd
#
# Track frame offsets:
#	150
#	13212
#	25677
#	39375
#	55865
#	66835
#	81467
#	94692
#	109395
#	122772
#	137515
#	151505
#	163862
#	175485
#	191915
#
# Disc length: 2735 seconds
#
# Revision: 1
# Processed by: cddbd v1.5.1PL0 Copyright (c) Steve Scherf et al.
# Submitted via: EasyCDDAExtractor 7.0.6.1
#
DISCID=c90aad0f
DTITLE=Varios - En la magía del bolero (El teclado mágico)
DYEAR=1900
DGENRE=Blues
TTITLE0=Regalame esta noche
TTITLE1=Somos diferentes
TTITLE2=Cancionero
TTITLE3=Y volvere
TTITLE4=Sabor a mi
TTITLE5=Cuando vuelva a tu lado
TTITLE6=Un poco más
TTITLE7=Usted
TTITLE8=Una aventura más
TTITLE9=Dos almas
TTITLE10=Peleas
TTITLE11=Dejame si estoy llorando
TTITLE12=Y...
TTITLE13=A pesar de todo
TTITLE14=Esta noche la paso contigo
EXTD=
EXTT0=
EXTT1=
EXTT2=
EXTT3=
EXTT4=
EXTT5=
EXTT6=
EXTT7=
EXTT8=
EXTT9=
EXTT10=
EXTT11=
EXTT12=
EXTT13=
EXTT14=
PLAYORDER=
